<svg width="512" height="512" viewBox="0 0 512 512" fill="none" xmlns="http://www.w3.org/2000/svg">
<path d="M0 64C0 28.6538 28.6538 0 64 0H256V512H64C28.6538 512 0 483.346 0 448V64Z" fill="#3B82F6"/>
<path d="M256 0H448C483.346 0 512 28.6538 512 64V448C512 483.346 483.346 512 448 512H256V0Z" fill="#EF4444"/>
<circle cx="256" cy="256" r="120" fill="#F9FAFB"/>
<path d="M242.375 279.068V277.136C242.413 270.508 243 265.223 244.136 261.284C245.311 257.345 247.015 254.163 249.25 251.739C251.485 249.314 254.174 247.117 257.318 245.148C259.667 243.633 261.769 242.061 263.625 240.432C265.481 238.803 266.958 237.004 268.057 235.034C269.155 233.027 269.705 230.792 269.705 228.33C269.705 225.716 269.08 223.424 267.83 221.455C266.58 219.485 264.894 217.97 262.773 216.909C260.689 215.848 258.379 215.318 255.841 215.318C253.379 215.318 251.049 215.867 248.852 216.966C246.655 218.027 244.856 219.617 243.455 221.739C242.053 223.822 241.295 226.417 241.182 229.523H218C218.189 221.947 220.008 215.697 223.455 210.773C226.902 205.811 231.466 202.117 237.148 199.693C242.83 197.231 249.098 196 255.955 196C263.492 196 270.159 197.25 275.955 199.75C281.75 202.212 286.295 205.792 289.591 210.489C292.886 215.186 294.534 220.848 294.534 227.477C294.534 231.909 293.795 235.848 292.318 239.295C290.879 242.705 288.852 245.735 286.239 248.386C283.625 251 280.538 253.367 276.977 255.489C273.985 257.269 271.523 259.125 269.591 261.057C267.697 262.989 266.277 265.223 265.33 267.761C264.42 270.299 263.947 273.424 263.909 277.136V279.068H242.375ZM253.625 315.432C249.837 315.432 246.598 314.106 243.909 311.455C241.258 308.765 239.951 305.545 239.989 301.795C239.951 298.083 241.258 294.902 243.909 292.25C246.598 289.598 249.837 288.273 253.625 288.273C257.223 288.273 260.386 289.598 263.114 292.25C265.841 294.902 267.223 298.083 267.261 301.795C267.223 304.295 266.561 306.587 265.273 308.67C264.023 310.716 262.375 312.364 260.33 313.614C258.284 314.826 256.049 315.432 253.625 315.432Z" fill="#374151"/>
<path d="M453.02 299L441.747 287.591L471.339 257.383H402V240.617H471.339L441.747 210.458L453.02 199L502 249L453.02 299Z" fill="#F9FAFB"/>
<path d="M58.9796 199L70.2527 210.409L40.6608 240.617H110L110 257.383H40.6608L70.2527 287.542L58.9796 299L10 249L58.9796 199Z" fill="#F9FAFB"/>
</svg>
